<svg xmlns="http://www.w3.org/2000/svg" width="28" height="28" viewBox="0 0 28 28"><defs><style>.a{fill:rgba(255,255,255,0);}.b{fill:#b1b1b1;}</style></defs><circle class="a" cx="14" cy="14" r="14"/><g transform="translate(10 5.039)"><path class="b" d="M4687.113,591.632l-8.189-7.9-.909.9,7.233,6.993c-1.556,1.53-5.712,5.353-7.233,6.883l1.013.987Z" transform="translate(-4677.067 -582.735)"/><path class="b" d="M4677.592,581.555l-1.657,1.63,7.613,7.269c-.756.721-1.868,1.753-3.036,2.836-1.653,1.535-3.363,3.122-4.248,4l-.326.324,1.769,1.7,9.227-8.868Zm-.245,1.62.256-.252,7.909,7.531-7.806,7.5-.36-.347c.932-.9,2.436-2.3,3.9-3.656,1.36-1.262,2.645-2.455,3.387-3.176l.335-.326Z" transform="translate(-4675.935 -581.555)"/></g></svg>